<svg width="180" height="34" viewBox="0 0 180 34" fill="none" xmlns="http://www.w3.org/2000/svg">
<path d="M23.9641 0C29.0352 0 33.1638 4.12865 33.1638 9.1997C33.1638 14.2708 29.0352 18.4443 23.9641 18.4443C21.3613 18.4443 18.9828 17.3672 17.3224 15.6171L12.8796 18.4892C13.0591 19.1174 13.1937 19.7906 13.1937 20.4637C13.1937 20.7779 13.1488 21.1369 13.104 21.451C12.9245 22.6627 12.4308 23.7397 11.6679 24.6372C10.4562 26.1182 8.61631 27.0606 6.55198 27.0606C2.91698 27.0606 0 24.1436 0 20.4637C0 16.7838 2.96185 13.8669 6.59686 13.8669C8.30217 13.8669 9.82797 14.4951 10.9948 15.5273L15.4375 12.6552C14.9888 11.5782 14.7644 10.4114 14.7644 9.1997C14.7195 4.12865 18.8482 0 23.9641 0ZM29.3942 9.24458C29.3942 6.23785 26.926 3.76963 23.9192 3.76963C20.9125 3.76963 18.4443 6.23785 18.4443 9.24458C18.4443 12.2513 20.9574 14.7195 23.9641 14.7195C26.9708 14.7195 29.3942 12.2513 29.3942 9.24458ZM10.5909 20.4637C10.5909 18.2648 8.79581 16.4697 6.59686 16.4697C4.39791 16.4697 2.60284 18.2648 2.60284 20.4637C2.60284 22.6627 4.39791 24.4577 6.59686 24.4577C8.79581 24.5026 10.5909 22.7076 10.5909 20.4637Z" fill="#00B4F1"/>
<path d="M23.9646 5.16138C26.2085 5.16138 28.0484 7.00132 28.0484 9.24515C28.0484 11.489 26.2085 13.3289 23.9646 13.3289C21.7208 13.3289 19.8809 11.489 19.8809 9.24515C19.8809 7.00132 21.7208 5.16138 23.9646 5.16138Z" fill="#00B4F1"/>
<path d="M6.55159 17.6814C8.12227 17.6814 9.37882 18.9379 9.37882 20.5086C9.37882 22.0793 8.12227 23.3358 6.55159 23.3358C4.98091 23.3358 3.72437 22.0793 3.72437 20.5086C3.76924 18.9379 5.02579 17.6814 6.55159 17.6814Z" fill="#00B4F1"/>
<path d="M23.9637 23.1114C26.746 23.1114 29.0347 25.3552 29.0347 28.1825C29.0347 30.9648 26.7909 33.2535 23.9637 33.2535C21.1364 33.2535 18.8926 31.0097 18.8926 28.1825C18.8926 28.0927 18.8926 27.9581 18.8926 27.8683L11.6675 24.6821C12.3855 23.7846 12.924 22.6626 13.1035 21.4958L20.3287 24.6821C21.2262 23.6948 22.5276 23.1114 23.9637 23.1114ZM26.8806 28.1376C26.8806 26.522 25.5792 25.2206 23.9637 25.2206C22.3481 25.2206 21.0467 26.522 21.0467 28.1376C21.0467 29.7531 22.3481 31.0546 23.9637 31.0546C25.5792 31.0546 26.8806 29.7531 26.8806 28.1376Z" fill="#2B5597"/>
<path d="M23.9639 30.0673C25.0296 30.0673 25.8936 29.2033 25.8936 28.1376C25.8936 27.0718 25.0296 26.2079 23.9639 26.2079C22.8981 26.2079 22.0342 27.0718 22.0342 28.1376C22.0342 29.2033 22.8981 30.0673 23.9639 30.0673Z" fill="#2B5597"/>
<path d="M180.001 18.9382V30.4715H174.436V20.3743V19.8357C174.301 18.4446 173.134 17.3675 171.698 17.3675C170.173 17.3675 168.961 18.5792 168.961 20.105V30.4715H163.441V20.3743V19.8357C163.306 18.4446 162.14 17.3675 160.704 17.3675C159.178 17.3675 157.966 18.5792 157.966 20.105V30.4715H152.446V12.7452H157.966V15.0339C159.088 13.6428 160.838 12.7452 162.768 12.7452C162.992 12.7452 163.217 12.7452 163.396 12.7901C165.505 13.0145 167.3 14.3159 168.243 16.111C168.422 15.752 168.647 15.393 168.916 15.0788C170.038 13.6876 171.788 12.7901 173.718 12.7901C173.942 12.7901 174.167 12.7901 174.346 12.835C177.577 13.1043 180.001 15.752 180.001 18.9382Z" fill="#2B5597"/>
<path d="M128.033 21.6308C128.033 26.5224 123.949 30.5164 118.923 30.5164C113.897 30.5164 109.813 26.5672 109.813 21.6308C109.813 16.7393 113.897 12.7452 118.923 12.7452C123.949 12.7452 128.033 16.7393 128.033 21.6308ZM122.647 23.1566C122.827 22.6181 122.917 22.1244 122.917 21.5859C122.917 21.0474 122.827 20.5089 122.647 20.0152C122.468 19.4767 122.199 19.028 121.885 18.6241C121.526 18.2202 121.122 17.906 120.628 17.6817C120.134 17.4124 119.551 17.3227 118.923 17.3227C118.25 17.3227 117.711 17.4573 117.217 17.6817C116.724 17.9509 116.32 18.2651 115.961 18.6241C115.647 19.028 115.377 19.4767 115.198 20.0152C115.018 20.5538 114.929 21.0474 114.929 21.5859C114.929 22.1244 115.018 22.663 115.198 23.1566C115.377 23.6951 115.602 24.1439 115.961 24.5478C116.32 24.9517 116.724 25.3107 117.217 25.5351C117.711 25.8043 118.294 25.8941 118.923 25.8941C119.596 25.8941 120.134 25.7594 120.628 25.5351C121.122 25.3107 121.526 24.9517 121.885 24.5478C122.244 24.1439 122.468 23.6951 122.647 23.1566Z" fill="#2B5597"/>
<path d="M149.349 21.6308C149.349 26.5224 145.266 30.5164 140.239 30.5164C135.213 30.5164 131.13 26.5672 131.13 21.6308C131.13 16.7393 135.213 12.7452 140.239 12.7452C145.266 12.7452 149.349 16.7393 149.349 21.6308ZM144.009 23.1566C144.189 22.6181 144.278 22.1244 144.278 21.5859C144.278 21.0474 144.189 20.5089 144.009 20.0152C143.83 19.4767 143.56 19.028 143.246 18.6241C142.887 18.2202 142.483 17.906 141.99 17.6817C141.496 17.4124 140.913 17.3227 140.284 17.3227C139.656 17.3227 139.073 17.4573 138.579 17.6817C138.085 17.9509 137.681 18.2651 137.322 18.6241C137.008 19.028 136.739 19.4767 136.56 20.0152C136.38 20.5538 136.29 21.0474 136.29 21.5859C136.29 22.1244 136.38 22.663 136.56 23.1566C136.739 23.6951 136.963 24.1439 137.322 24.5478C137.681 24.9517 138.085 25.3107 138.579 25.5351C139.073 25.8043 139.656 25.8941 140.284 25.8941C140.957 25.8941 141.496 25.7594 141.99 25.5351C142.483 25.2658 142.887 24.9517 143.246 24.5478C143.56 24.1439 143.83 23.6951 144.009 23.1566Z" fill="#2B5597"/>
<path d="M108.242 12.7901V17.3675H105.505C103.979 17.3675 102.768 18.5792 102.768 20.105V30.4715H97.2477V12.7452H102.768V15.0339C103.889 13.6428 105.64 12.7452 107.569 12.7452C107.794 12.7452 108.018 12.7452 108.242 12.7901Z" fill="#2B5597"/>
<path d="M94.106 12.7448L87.1502 21.047L94.106 30.4711H87.1502L81.4508 22.1689H81.3611V30.4711H75.6617V5.56458H81.3611V20.329H81.4508L87.2848 12.7448H94.106Z" fill="#2B5597"/>
<path d="M72.5657 18.9382V30.4715H67.0459V20.3743V19.8357C66.9113 18.4446 65.7445 17.3675 64.3084 17.3675C62.7826 17.3675 61.571 18.5792 61.571 20.105V30.4715H56.0511V12.7452H61.571V15.0339C62.6929 13.6428 64.4431 12.7452 66.3728 12.7452C66.5971 12.7452 66.8215 12.7452 67.001 12.7901C70.1424 13.1043 72.5657 15.752 72.5657 18.9382Z" fill="#2B5597"/>
<path d="M53.2242 8.30188V8.97503C53.2242 10.5008 51.9676 11.7574 50.4418 11.7574H49.7687C48.2429 11.7574 46.9863 10.5008 46.9863 8.97503V8.30188C46.9863 6.77608 48.2429 5.51953 49.7687 5.51953H50.4418C52.0125 5.56441 53.2242 6.77608 53.2242 8.30188Z" fill="#2B5597"/>
<path d="M52.9093 12.7452H47.3895V30.4715H52.9093V12.7452Z" fill="#2B5597"/>
<path d="M44.2038 5.56458H38.684V30.516H44.2038V5.56458Z" fill="#2B5597"/>
</svg>
