<svg width="26" height="26" viewBox="0 0 26 26" fill="none" xmlns="http://www.w3.org/2000/svg">
<circle cx="13" cy="13" r="13" fill="#F8FFF4"/>
<path fill-rule="evenodd" clip-rule="evenodd" d="M11.748 17.3642C11.7505 17.3662 11.7529 17.3683 11.7553 17.3703C11.9483 17.531 12.1705 17.6333 12.4006 17.6792C12.4594 17.691 12.5186 17.699 12.578 17.7034C13.0306 17.7369 13.4921 17.5588 13.8047 17.1835C13.8074 17.1803 13.8101 17.177 13.8127 17.1738L18.1506 11.9659C18.665 11.3485 18.5814 10.4309 17.9639 9.91661C17.3464 9.40228 16.4289 9.4859 15.9145 10.1034L12.4998 14.2029L10.6365 12.6508C10.019 12.1364 9.10147 12.22 8.58713 12.8375C8.0728 13.455 8.15642 14.3725 8.7739 14.8869L11.748 17.3642Z" fill="#38AC4B"/>
</svg>
