<svg width="11" height="9" viewBox="0 0 11 9" fill="none" xmlns="http://www.w3.org/2000/svg">
<path fill-rule="evenodd" clip-rule="evenodd" d="M3.74804 8.36419C3.75045 8.36622 3.75287 8.36825 3.7553 8.37028C3.94827 8.53101 4.17053 8.63334 4.40063 8.67924C4.45936 8.69096 4.5186 8.69899 4.57799 8.70339C5.03057 8.73689 5.4921 8.55881 5.8047 8.18353C5.8074 8.18029 5.81008 8.17704 5.81274 8.17378L10.1506 2.96595C10.665 2.34847 10.5814 1.43095 9.96387 0.916615C9.34639 0.40228 8.42887 0.485898 7.91453 1.10338L4.49984 5.20287L2.63647 3.65076C2.01899 3.13643 1.10147 3.22005 0.587133 3.83753C0.0727988 4.45501 0.156416 5.37253 0.773898 5.88686L3.74804 8.36419Z" fill="#38AC4B"/>
</svg>
