<svg width="1472" height="1112" viewBox="0 0 1472 1112" fill="none" xmlns="http://www.w3.org/2000/svg">
<mask id="mask0" mask-type="alpha" maskUnits="userSpaceOnUse" x="0" y="0" width="1472" height="1112">
<rect width="1472" height="1112" fill="#C4C4C4"/>
</mask>
<g mask="url(#mask0)">
<path fill-rule="evenodd" clip-rule="evenodd" d="M1457 248C1510.57 248 1554 205.019 1554 152C1554 98.9807 1510.57 56 1457 56C1403.43 56 1360 98.9807 1360 152C1360 205.019 1403.43 248 1457 248ZM240 544C240 663.294 143.517 760 24.5 760C-94.5174 760 -191 663.294 -191 544C-191 424.706 -94.5174 328 24.5 328C143.517 328 240 424.706 240 544ZM1643 1014C1643 1154.28 1529.5 1268 1389.5 1268C1249.5 1268 1136 1154.28 1136 1014C1136 873.72 1249.5 760 1389.5 760C1529.5 760 1643 873.72 1643 1014Z" fill="#48C9F3" fill-opacity="0.05"/>
</g>
</svg>
